<?xml version="1.0" encoding="utf-8"?>
<!-- Generator: Adobe Illustrator 16.0.4, SVG Export Plug-In . SVG Version: 6.00 Build 0)  -->
<!DOCTYPE svg PUBLIC "-//W3C//DTD SVG 1.1//EN" "http://www.w3.org/Graphics/SVG/1.1/DTD/svg11.dtd">
<svg version="1.1" id="圖層_1" xmlns="http://www.w3.org/2000/svg" xmlns:xlink="http://www.w3.org/1999/xlink" x="0px" y="0px"
	 width="140px" height="132px" viewBox="0 0 140 132" enable-background="new 0 0 140 132" xml:space="preserve">
<g>
	<path fill="#EB3317" d="M17.448,17.319v99.261c0,3.753,3.2,6.809,7.134,6.809h94.922c3.936,0,7.135-3.056,7.135-6.809V17.319
		c0-3.754-3.199-6.807-7.135-6.807H24.583C20.648,10.513,17.448,13.565,17.448,17.319z M67.062,13.361
		c-6.593,1.695-11.188,9.161-16.038,13.863c-0.163-1.238,2.654-12.953,1.876-13.863H67.062z M24.583,13.361h25.466
		c-6.423,2.932-4.703,8.548-4.468,14.468l-3.568,0.12l-0.968-8.89c-3.864-0.273-5.772,2.934-5.201,6.593
		c-2.504-1.74-10.028-9.207-13.063-8.528c-1.133,0.341-2.03,2.531-2.347,3.518V17.32C20.433,15.135,22.295,13.361,24.583,13.361z
		 M22.851,90.533c0.469-0.312,0.938-0.527,1.406-0.645c5.449,0.92,10.759,3.145,15.234,6.387c-0.934,1.72-1.305,3.557-1.113,5.508
		c1.471,3.451,2.169,7.328,3.047,11.074c-1.999-2.01-4.186-3.787-6.562-5.332c1.418-1.606,2.299-3.652,2.168-5.685l-3.164-1.055
		c-1.188,1.177-2.087,2.544-2.695,4.103l-2.754-1.759c1.71-2.802,2.902-5.81,3.574-9.022c-1.015-0.353-2.051-0.332-3.105,0.059
		c-2.534,1.074-3.62,4.93-4.512,7.207c-0.469-0.195-0.917-0.214-1.348-0.059c-1.474,0.615-1.831,2.67-2.593,3.895V90.757l1.246,0.89
		C21.992,91.178,22.382,90.807,22.851,90.533C23.319,90.221,22.382,90.807,22.851,90.533z M41.659,80.221
		c-4.772,1.375-1.802,9.736-0.938,12.598l-0.527,0.587c-1.057-1.251-2.229-2.384-3.516-3.398c0.524-3.872-0.9-7.991-1.641-12.188
		c3.152-0.277,6.082,0.406,8.789,2.052l-0.117,0.703C43.158,80.243,42.283,79.954,41.659,80.221
		C41.386,80.299,41.933,80.104,41.659,80.221z M48.632,102.838l2.52,0.117c0.14,1.99,0.551,3.924,1.231,5.801h-2.286L48.632,102.838
		z M46.405,108.697H44.53l-1.523-6.211l2.051,0.117L46.405,108.697z M56.016,107.701c-0.124-1.11-0.938-1.943-0.938-3.105
		c1.147-1.076,2.456-1.896,3.926-2.461c0.396,2.323,1.1,4.551,2.109,6.68h-5.156C55.996,108.424,56.016,108.053,56.016,107.701
		C55.977,107.35,56.016,108.053,56.016,107.701z M20.433,116.581v-8.47l0.132,0.294c7.583-3.3,19.191,7.622,24.35,12.135H24.583
		C22.295,120.54,20.433,118.764,20.433,116.581z M119.505,120.54H47.259c-0.362-2.356-2.173-4.586-4.018-6.042
		c0.326-0.255,0.58-0.568,0.762-0.938l19.337-0.47c0.787,1.478,1.686,2.884,2.695,4.22c-0.187,0.881-0.382,1.76-0.586,2.637
		c1.26-0.545,7.252-3.492,6.797-5.566c-0.387-3.764-8.437-8.29-9.316-13.887c1.026-0.327,1.983-0.796,2.871-1.406
		c0.135-0.661,0.154-1.324,0.059-1.992c-4.494-4.08-9.672,0.534-12.246,4.396l0.41-1.23c-1.036-3.108-10.157-5.671-13.067-5.098
		l-0.352-0.938c2.174-0.648,3.424-2.094,3.75-4.336c-0.426-0.791-0.703-1.812-0.762-2.754l3.926,0.059
		c0.438,3.053,1.336,5.963,2.695,8.73c0.446-0.644,0.817-1.326,1.113-2.051c2.979-0.034,7.394,0.811,10.196-0.117
		c11.334-0.32,10.252-18.693,7.09-25.488c-2.555-4-13.46,4.85-15.527,6.621c3.478-1.014,6.994-1.17,10.547-0.469
		c1.979,4.831,1.71,10.154-0.059,15c-3.789,0.566-7.966-0.23-11.544-1.113c-0.914-2.666-1.734-5.361-2.461-8.086
		c-0.705,0.529-1.311,1.154-1.816,1.875l-1.816-0.762c2.104-0.839,3.812-2.121,4.512-4.219c-4.767-5.174-10.727-4.768-16.172-7.734
		c-0.787-0.092-1.509,0.084-2.168,0.527c-1.094,2.553-3.22,4.601-2.168,7.5l0.703,0.41l2.051,9.668
		c-4.647-3.159-9.734-5.998-12.261,1.318V24.993l0.533,0.296l0.907-0.666l14.455,5.021c0.465,3.642,2.066,8.411,1.331,12.035
		c3.722-1.769,6.652-3.442,4.899-7.983l3.447-0.484c0.604,4.108,1.472,8.16,2.601,12.156c-1.93-0.047-20.833-2.951-21.167-2.66
		c-9.748,3.702-1.858,17.296,1.149,22.921c2.921,0.728,5.191-3.414,6.713-5.14c12.439-2.166,25.006,2.059,35.804,8.043
		c-0.625-4.412-6.243-6.51-9.495-8.527c4.833-2.795,7.26-8.038,12.883-9.737l-0.121-1.512c-2.893-0.646-3.956-3.553-7.379-3.811
		c-1.789-8.955-2.063-11.673-11.611-15.543c2.154-2.117,21.506-13.415,14.434-16.04h45.144c-3.262,3.859-8,6.566-13.016,7.281
		c4.371-0.727,8.912-0.251,12.951,1.611c2.17,5.87,2.617,12.168,1.133,18.26c-4.617,5.806-23.769-21.375-25.182-20.527
		c-5.795,2.919-0.115,25.424,3.521,26.018c3.487-5.05,2.604-6.29,1.194-12.173c8.996,6.312,25.237,19.529,28.096,0.057v60.964
		c-7.049-10.158-30.881-14.892-35.762-2.041c-2-5.998-6.131-10.705-8.691-16.47c-4.297,1.726-7.005,9.108-6.152,12.363
		c1.038,4.86,2.076,9.724,3.115,14.584c0.393,1.835-1.273,5.21-1.005,5.923c1.384,4.152,7.879-4.275,8.379-4.98
		c1.257-1.463-3.658-12.975-3.75-15.819c2.997,1.187,5.597,2.935,7.797,5.247c-0.808,2.281-1.337,4.777-1.662,7.175
		c2.833-1.385,4.747-3.573,5.742-6.562c4.166-0.197,9.524-1.45,13.595-0.646c14.096-1.606,3.489,11.979,2.577,16.992
		c5.124-2.759,12.388-8.854,15.818-13.408v19.368C123.654,118.764,121.792,120.54,119.505,120.54z M51.689,33.816
		c6.3,1.197,11.934,5.238,14.818,11.008l-16.27,0.604C55.055,42.463,53.048,38.383,51.689,33.816z M35.602,52.807
		c0.121,0.727,0.262,1.492,0.423,2.299c-1.942,0.252-3.717,0.938-5.322,2.056c-1.036-1.977-1.681-4.073-1.936-6.29l6.532-0.303
		C35.381,51.295,35.481,52.041,35.602,52.807C35.723,53.533,35.481,52.041,35.602,52.807z M40.743,50.689l5.262,0.121l0.786,4.477
		c-1.824-0.279-3.659-0.4-5.503-0.363C40.828,53.548,40.646,52.136,40.743,50.689z M51.871,56.375l-1.392-5.807l13.79-0.423
		c0.541,3.594-0.771,6.73-2.842,9.737C58.278,58.616,55.092,57.447,51.871,56.375z M123.654,17.319v14.168
		c-0.297-6.251-1.727-12.308-4.045-18.116C121.848,13.426,123.654,15.169,123.654,17.319z"/>
	<path fill="#EB3317" d="M28.163,38.473c1.299-0.646,2.67-1.05,4.112-1.209c1.349-1.566,2.095-3.381,2.238-5.443l-3.447-0.544
		c-4.087,1.638-7.272,4.645-8.89,8.77l0.544,1.995C24.553,40.88,26.367,39.69,28.163,38.473
		C28.768,38.191,27.236,39.118,28.163,38.473z"/>
	<path fill="#EB3317" d="M90.068,42.961c-1.672-1.552-3.502-2.825-5.49-3.819c2.844-2.437-2.293-24.738-5.251-23.392
		c-1.306,1.235-3.72,3.773-3.401,5.848c1.73,4.768,2.48,10.128,3.76,15.156c-0.99-0.628-2.943-3.136-4.297-2.326
		c-1.349,1.071-6.931,13.125-0.775,10.621c0.85-0.422,1.086-1.902,1.91-2.566c6.199,0.889,12.229,2.835,17.781,5.729
		C93.15,46.264,91.738,44.512,90.068,42.961C88.396,41.409,91.738,44.512,90.068,42.961z"/>
	<path fill="#EB3317" d="M86.368,67.605c4.741-5.129,21.632-0.508,23.69-6.684c-0.562-0.891-1.357-1.349-2.389-1.373
		c-6.215-10.847-13.13-8.3-24.883-12.172c-1.383,2.074-4.164,5.253-3.461,8.055c1.23,3.869,2.851,9.777,4.773,13.486
		C85.02,69.848,85.859,68.157,86.368,67.605C86.846,67.088,85.891,68.123,86.368,67.605z M85.771,56.029
		c4.328-0.783,9.146-0.325,13.545-0.418l1.552,4.177c-3.563,0.148-10.284-0.915-13.485,0.955L85.771,56.029z"/>
</g>
</svg>
