<?xml version="1.0" encoding="utf-8"?>
<!-- Generator: Adobe Illustrator 16.0.4, SVG Export Plug-In . SVG Version: 6.00 Build 0)  -->
<!DOCTYPE svg PUBLIC "-//W3C//DTD SVG 1.1//EN" "http://www.w3.org/Graphics/SVG/1.1/DTD/svg11.dtd">
<svg version="1.1" id="圖層_1" xmlns="http://www.w3.org/2000/svg" xmlns:xlink="http://www.w3.org/1999/xlink" x="0px" y="0px"
	 width="141.732px" height="141.732px" viewBox="0 0 141.732 141.732" enable-background="new 0 0 141.732 141.732"
	 xml:space="preserve">
<circle fill="none" cx="70.967" cy="70.765" r="70.765"/>
<g>
	<rect x="13.97" y="81.542" fill="#CE3B2B" width="15.773" height="4.532"/>
	<rect x="32.01" y="81.542" fill="#CE3B2B" width="14.729" height="4.532"/>
	<rect x="32.01" y="74.611" fill="#CE3B2B" width="14.729" height="4.664"/>
	<rect x="13.97" y="74.611" fill="#CE3B2B" width="15.773" height="4.664"/>
	<rect x="16.453" y="44.608" fill="#CE3B2B" width="7.212" height="20.742"/>
	<rect x="17.434" y="93.438" fill="#CE3B2B" width="33.62" height="4.009"/>
	<rect x="25.931" y="44.608" fill="#CE3B2B" width="7.146" height="20.742"/>
	<path fill="#CE3B2B" d="M0.202,41.634v58.465c0,3.396,2.779,6.177,6.177,6.177h128.976c3.396,0,6.177-2.779,6.177-6.177V41.634
		c0-3.396-2.779-6.177-6.177-6.177H6.379C2.981,35.458,0.202,38.238,0.202,41.634z M14.187,67.617V56.113H8.174v-2.266h6.014V42.342
		h21.157v25.274L14.187,67.617L14.187,67.617z M62.558,70.166V56.113h-7.865V69.12h-2.267V56.113H44.43v13.334h-2.268v-28.87h2.268
		v13.271h7.995V40.839h2.267v13.009h7.865V39.858h2.267v30.308H62.558z M92.604,45.293l8.034,4.019l-1.013,2.02l-8.033-4.017
		L92.604,45.293z M11.703,88.34V72.346h37.302v6.93h19.348v2.267H49.005v6.798L11.703,88.34L11.703,88.34z M15.168,99.713v-8.541
		h38.151v8.541H15.168z M116.858,70.842v6.145h16.537v2.267h-16.537v13.619h7.313l7.065,4.067l-1.126,1.996l-6.561-3.797h-6.693
		v6.145h-2.267v-6.145H105.7v-2.268h8.891V79.253H105.7v-2.267h8.891v-6.145H116.858z M99.82,76.137h2.265v8.761h8.825v2.267h-8.825
		v8.758H99.82v-8.758h-8.172v-2.267h8.172V76.137z M83.325,70.842v13.128l16.093-13.104l1.366,1.861L84.43,86.03l16.354,13.305
		l-1.366,1.86L83.325,88.092v13.191H81.06V87.164h-7.259v-2.267h7.259V70.842H83.325z M130.389,39.793v30.438h-2.268V57.877h-54.58
		v-2.266h54.58V39.793H130.389z"/>
</g>
</svg>
